<svg width="117" height="110" viewBox="0 0 117 110" fill="none" xmlns="http://www.w3.org/2000/svg">
<path d="M44.9947 74.9749C67.8352 90.079 92.2912 93.3407 99.6188 82.2599C106.946 71.1792 94.3706 49.9522 71.5301 34.8481C48.6897 19.7439 24.2337 16.4823 16.9061 27.563C9.57857 38.6437 22.1543 59.8708 44.9947 74.9749Z" fill="#EBEBEB"/>
<path d="M48.0867 68.1759C27.5351 54.0313 16.0904 35.3009 20.4433 24.1121C19.3437 24.8451 18.3668 25.7472 17.5488 26.7851C9.33123 37.2704 20.9246 58.3479 43.4673 73.8671C66.0099 89.3862 90.9398 93.5017 99.1574 83.0164C99.8752 82.0977 100.453 81.0778 100.872 79.9898C90.6331 86.8841 68.3673 82.1869 48.0867 68.1759Z" fill="#E0E0E0"/>
</svg>
