<svg width="91" height="91" viewBox="0 0 91 91" fill="none" xmlns="http://www.w3.org/2000/svg">
<path d="M28.1215 46.9349C29.6039 62.1462 38.7261 73.7055 48.4964 72.7534C58.2668 71.8012 64.9855 58.6981 63.503 43.4868C62.0206 28.2754 52.8984 16.7161 43.1281 17.6683C33.3577 18.6204 26.639 31.7236 28.1215 46.9349Z" fill="#2C2C2C"/>
<path d="M33.5138 46.5196C32.1389 32.6594 37.5872 20.5291 45.9621 17.7498C45.0165 17.6073 44.0566 17.5855 43.1055 17.6848C33.3358 18.6622 26.6364 31.7872 28.1342 46.9953C29.6319 62.2033 38.7735 73.7378 48.5382 72.7565C49.3892 72.6756 50.2285 72.4998 51.0404 72.2324C42.42 70.9565 34.8645 60.2309 33.5138 46.5196Z" fill="#455A64"/>
</svg>
