<svg width="30" height="30" viewBox="0 0 30 30" fill="none" xmlns="http://www.w3.org/2000/svg">
<path d="M21.2321 9.60826L29.2273 14.1512C29.4609 14.2764 29.6561 14.4619 29.7921 14.6881C29.9282 14.9142 30 15.1725 30 15.4357C30 15.699 29.9282 15.9573 29.7921 16.1834C29.6561 16.4095 29.4609 16.595 29.2273 16.7202L21.3139 20.8035C21.066 20.9265 20.865 21.1257 20.7409 21.3714L16.6478 29.1323C16.528 29.3912 16.3358 29.6107 16.094 29.7645C15.8521 29.9183 15.5708 30 15.2834 30C14.996 30 14.7146 29.9183 14.4728 29.7645C14.2309 29.6107 14.0387 29.3912 13.919 29.1323L9.47112 21.0198C9.32942 20.7711 9.12184 20.5653 8.87079 20.4249L0.875554 15.8819C0.614298 15.7633 0.39288 15.5728 0.237667 15.3332C0.0824543 15.0935 0 14.8146 0 14.5299C0 14.2451 0.0824543 13.9662 0.237667 13.7266C0.39288 13.4869 0.614298 13.2964 0.875554 13.1778L8.78893 9.09446C9.04369 8.97153 9.25351 8.77308 9.38926 8.52661L13.6461 0.765663C13.7725 0.534114 13.9597 0.340682 14.1878 0.205899C14.416 0.0711159 14.6767 0 14.9423 0C15.2079 0 15.4686 0.0711159 15.6968 0.205899C15.9249 0.340682 16.1121 0.534114 16.2385 0.765663L20.6864 8.87816C20.7957 9.16737 20.9848 9.42031 21.2321 9.60826Z" fill="#FFECCE"/>
</svg>
